<svg version="1.2" xmlns="http://www.w3.org/2000/svg" viewBox="0 0 512 512" width="512" height="512">
	<title>file</title>
	<style>
		.s0 { fill: none;stroke: #7d31db;stroke-linecap: round;stroke-miterlimit:10;stroke-width: 23 } 
	</style>
	<path fill-rule="evenodd" class="s0" d="m250.8 343.7q-1.2 0-2.3-0.1 6.6 0.1 13.3 0l-55.3-15c-15.3-10.4-27.3-25.6-33.6-43.9-11.7-33.7-1.9-71 24.7-94.6 19.1-17 44.2-24.5 68.6-21.6q-8-0.3-16-0.1l55.7 15c25.1 17.3 39.8 46.6 38 77.7-0.7 11.6-3.7 22.8-8.7 33.2-5.1 10.4-12.1 19.7-20.8 27.4-8.6 7.7-18.7 13.6-29.6 17.3-10.9 3.8-22.5 5.4-34 4.7zm15.4-175.2q10.4 0.4 20.6 1.5c12.2 1.4 24.2 3.6 36.1 6.6 11.9 3 23.5 6.8 34.9 11.4 11.3 4.6 22.3 9.9 32.9 16l7.5 4.3-92.3-24.9q-5.4-3.7-11.4-6.7c-9.1-4.4-18.6-7.1-28.3-8.2zm-152.3 135.1l7.5 4.3c10.6 6.1 21.6 11.4 32.9 16 11.4 4.6 23 8.4 34.9 11.4 11.8 3.1 23.8 5.3 36 6.6q11.6 1.4 23.3 1.7c-15.4-1.4-29.7-6.6-42-15z"/>
</svg>